<svg width="14" height="27" viewBox="0 0 14 27" fill="none" xmlns="http://www.w3.org/2000/svg">
<path d="M13.8802 11.5954L13.5481 14.2728C13.4877 14.7157 13.1152 15.0579 12.6623 15.0579H8.33417V26.2406C7.88123 26.2808 7.41822 26.301 6.94514 26.301C5.89834 26.301 4.87167 26.2003 3.88525 25.999V15.0579H0.553598C0.251636 15.0579 0 14.8062 0 14.5043V11.1525C0 10.8505 0.251636 10.5989 0.553598 10.5989H3.88525V5.57625C3.88525 2.49623 6.37141 0 9.44137 0H13.3266C13.6286 0 13.8802 0.251636 13.8802 0.553598V3.90539C13.8802 4.20735 13.6286 4.45898 13.3266 4.45898H10.5486C9.32058 4.45898 8.32411 5.45546 8.32411 6.69351V10.5989H12.9945C13.5279 10.5989 13.9406 11.072 13.8802 11.6054V11.5954Z" fill="black"/>
</svg>
