<svg width="23" height="19" viewBox="0 0 23 19" fill="none" xmlns="http://www.w3.org/2000/svg">
<path d="M1.42449 8.15682C1.42449 8.15682 11.4245 4.03917 14.9539 2.6106C16.2984 2.02236 20.8363 0.173623 20.8363 0.173623C20.8363 0.173623 22.9371 -0.666713 22.769 1.35009C22.769 2.19043 22.2648 4.96354 21.7606 8.07278C21.0884 12.4425 20.3321 17.1484 20.3321 17.1484C20.3321 17.1484 20.248 18.493 19.2396 18.7451C18.2312 18.9972 16.6346 17.9047 16.3825 17.7366C16.1304 17.5686 12.0127 14.9635 10.5001 13.703C10.0799 13.3669 9.65978 12.6946 10.5001 11.8543C12.601 9.92152 15.0379 7.56858 16.5505 6.05597C17.2228 5.38371 17.9791 3.70303 15.0379 5.71984C10.9203 8.57698 6.88667 11.182 6.88667 11.182C6.88667 11.182 5.9623 11.7703 4.1976 11.182C2.43289 10.6778 0.416082 10.0056 0.416082 10.0056C0.416082 10.0056 -1.01249 9.16522 1.42449 8.24085V8.15682Z" fill="black"/>
</svg>
