<svg width="22" height="22" viewBox="0 0 22 22" fill="none" xmlns="http://www.w3.org/2000/svg">
<path fill-rule="evenodd" clip-rule="evenodd" d="M7.11639 7.19834H11.288V9.16152C12.1675 7.87292 13.6395 7.03444 15.2963 7.03444H16.4418C19.1004 7.03444 21.2268 9.22268 21.2268 11.8195V21.3492H17.0754V13.7007C17.0143 12.0849 15.9305 10.8379 14.3147 10.8379C12.6989 10.8379 11.3498 12.0855 11.288 13.7007V21.3492H7.11639V7.19774V7.19834ZM2.49466 0C3.90558 0 5.05107 1.14549 5.05107 2.55641C5.05107 3.96734 3.90618 5.11283 2.49466 5.11283C1.08314 5.11283 0 3.96793 0 2.55641C0 1.14489 1.08373 0 2.49466 0ZM0.40855 7.19834H4.62114V21.3498H0.40855V7.19834Z" fill="black"/>
</svg>
