<svg width="175" height="26" viewBox="0 0 175 26" fill="none" xmlns="http://www.w3.org/2000/svg">
<path d="M44.0816 1.55779C44.0192 1.82808 43.8842 2.05679 43.7387 2.2959C42.0349 5.13399 31.1468 23.3997 30.3987 24.5744C30.087 25.063 29.6195 25.4061 28.9858 25.3957C28.3624 25.3749 27.7183 25.4996 27.1261 25.1774C26.7416 24.9798 26.4923 24.6368 26.2741 24.2937C25.4741 23.0046 23.8846 20.3121 23.8534 20.2705C23.8534 20.2705 35.2402 2.07758 36.2376 0.476609C36.3518 0.289482 36.4765 0.227106 36.7051 0.21671C37.4739 0.175127 42.3569 0.279086 43.292 0.310274C44.227 0.341462 44.2062 1.0172 44.0816 1.57858V1.55779Z" fill="#FFA841"/>
<path d="M14.0768 10.1031L9.49511 17.453C7.76008 14.5733 0.830342 3.13779 0.144641 1.99424C-0.281324 1.27692 0.290093 0.247721 1.12125 0.247721C3.21991 0.237325 5.31857 0.247721 7.41723 0.226929C7.65618 0.226929 7.80164 0.310096 7.92631 0.507619C9.29771 2.64918 13.9002 9.83278 14.0768 10.1135V10.1031Z" fill="#FFA841"/>
<path d="M26.7624 10.1032L18.1807 23.8778L17.6612 24.7095L17.6405 24.7303C17.069 25.2917 16.3937 25.5516 15.5834 25.4372C15.3963 25.406 15.1989 25.3956 15.0016 25.3748C14.3782 25.2813 13.9522 24.907 13.6405 24.3872C12.8094 23.015 11.9886 21.6427 11.1575 20.2704L20.4144 5.41464C21.1001 4.51019 22.1806 4.25029 23.1572 4.78048C23.4378 4.93642 23.6559 5.15474 23.8222 5.41464C24.6845 6.84928 25.6403 8.22154 26.5026 9.66657C26.5857 9.81212 26.6792 9.95766 26.7728 10.1032H26.7624Z" fill="#FFA841"/>
<path d="M53.9146 25.207H48.8696V0H53.9146V25.207ZM78.77 25.207H73.3735L63.6528 8.61328V25.207H58.6079V0H64.0044L73.7251 16.6113V0H78.77V25.207ZM103.625 25.207H98.229L88.5083 8.61328V25.207H83.4634V0H88.8599L98.5806 16.6113V0H103.625V25.207ZM125.598 25.207H108.319V0H125.598V5.04492H113.364V10.0898H121.643V15.1348H113.364V20.1621H125.598V25.207ZM134.176 5.04492V15.1348H139.221C139.913 15.1348 140.563 15.0059 141.172 14.748C141.782 14.4785 142.315 14.1152 142.772 13.6582C143.229 13.2012 143.586 12.668 143.844 12.0586C144.114 11.4375 144.249 10.7812 144.249 10.0898C144.249 9.39844 144.114 8.74805 143.844 8.13867C143.586 7.51758 143.229 6.97852 142.772 6.52148C142.315 6.06445 141.782 5.70703 141.172 5.44922C140.563 5.17969 139.913 5.04492 139.221 5.04492H134.176ZM134.176 25.207H129.131V0H139.221C140.147 0 141.038 0.123047 141.893 0.369141C142.749 0.603516 143.545 0.943359 144.284 1.38867C145.034 1.82227 145.713 2.34961 146.323 2.9707C146.944 3.58008 147.471 4.25977 147.905 5.00977C148.35 5.75977 148.69 6.5625 148.924 7.41797C149.17 8.27344 149.293 9.16406 149.293 10.0898C149.293 10.957 149.182 11.8008 148.959 12.6211C148.749 13.4414 148.438 14.2207 148.028 14.959C147.629 15.6973 147.137 16.377 146.551 16.998C145.965 17.6191 145.309 18.1582 144.583 18.6152L147.377 25.207H142.016L139.819 20.127L134.176 20.1621V25.207ZM163.954 25.207H158.926V17.3145C157.813 17.0332 156.788 16.582 155.85 15.9609C154.924 15.3398 154.127 14.6016 153.459 13.7461C152.792 12.8789 152.27 11.9238 151.895 10.8809C151.532 9.82617 151.35 8.71875 151.35 7.55859V0H156.395V7.55859C156.395 8.25 156.524 8.90625 156.782 9.52734C157.051 10.1367 157.415 10.6699 157.872 11.127C158.329 11.584 158.862 11.9473 159.471 12.2168C160.092 12.4746 160.749 12.6035 161.44 12.6035C162.131 12.6035 162.782 12.4746 163.391 12.2168C164.012 11.9473 164.551 11.584 165.008 11.127C165.465 10.6699 165.823 10.1367 166.081 9.52734C166.35 8.90625 166.485 8.25 166.485 7.55859V0H171.512V7.55859C171.512 8.71875 171.325 9.82617 170.95 10.8809C170.586 11.9238 170.071 12.8789 169.403 13.7461C168.735 14.6016 167.938 15.3398 167.012 15.9609C166.086 16.582 165.067 17.0332 163.954 17.3145V25.207Z" fill="#FFA841"/>
</svg>
