<?xml version="1.0" encoding="utf-8"?><svg viewBox="0 0 502.66 502.66" xmlns="http://www.w3.org/2000/svg" xmlns:xlink="http://www.w3.org/1999/xlink"><style>:root>svg{display:none}:root>svg:target{display:block}</style><svg viewBox="0 0 294 500" id="card-mask" xmlns="http://www.w3.org/2000/svg"><path d="M97.835 0C43.808 0 0 44.25 0 98.823V500h97.835c54.027 0 97.835-44.251 97.835-98.823V98.823C195.67 44.25 239.479 0 293.505 0H97.835Z"/></svg><svg viewBox="0 0 14 27" id="facebook" xmlns="http://www.w3.org/2000/svg"><path d="m13.88 11.595-.332 2.678a.9.9 0 0 1-.886.785H8.334V26.24c-.453.04-.916.06-1.389.06-1.047 0-2.073-.1-3.06-.302v-10.94H.554A.559.559 0 0 1 0 14.504v-3.351c0-.303.252-.554.554-.554h3.331V5.576C3.885 2.496 6.371 0 9.441 0h3.886c.302 0 .553.252.553.554v3.351a.558.558 0 0 1-.553.554h-2.778a2.227 2.227 0 0 0-2.225 2.235v3.905h4.67a.9.9 0 0 1 .886 1.006v-.01Z"/></svg><svg viewBox="0 0 502.664 502.664" xml:space="preserve" id="icon" xmlns="http://www.w3.org/2000/svg"><path d="M153.821 358.226 0 274.337v-46.463l153.821-83.414v54.574L46.636 250.523l107.185 53.431v54.272zm26.273 29.358L282.103 115.08h32.227L212.084 387.584h-31.99zm168.749-29.358v-54.272l107.164-52.999-107.164-52.59v-53.927l153.821 83.522v46.183l-153.821 84.083z"/></svg><svg viewBox="0 0 22 22" id="in" xmlns="http://www.w3.org/2000/svg"><path fill-rule="evenodd" clip-rule="evenodd" d="M7.116 7.198h4.172v1.964a4.849 4.849 0 0 1 4.008-2.128h1.146c2.658 0 4.785 2.189 4.785 4.785v9.53h-4.152v-7.648c-.06-1.616-1.144-2.863-2.76-2.863-1.616 0-2.965 1.248-3.027 2.863v7.648H7.116V7.198ZM2.495 0a2.558 2.558 0 0 1 0 5.113C1.083 5.113 0 3.968 0 2.556 0 1.145 1.084 0 2.495 0ZM.409 7.198H4.62V21.35H.41V7.198Z"/></svg><svg viewBox="0 0 175 26" id="logo" xmlns="http://www.w3.org/2000/svg"><path d="M44.082 1.558c-.063.27-.198.499-.343.738-1.704 2.838-12.592 21.104-13.34 22.278-.312.489-.78.832-1.413.822-.624-.021-1.268.104-1.86-.219-.384-.197-.634-.54-.852-.883-.8-1.29-2.39-3.982-2.42-4.024 0 0 11.386-18.192 12.384-19.793.114-.188.239-.25.467-.26.769-.042 5.652.062 6.587.093.935.031.914.707.79 1.269v-.021Zm-30.005 8.545-4.582 7.35C7.76 14.573.83 3.138.145 1.994-.281 1.277.29.248 1.12.248c2.1-.01 4.2 0 6.297-.021.24 0 .385.083.51.28 1.37 2.142 5.973 9.326 6.15 9.607v-.01Zm12.685 0-8.581 13.775-.52.831-.02.021c-.572.562-1.247.822-2.058.707-.187-.031-.384-.041-.581-.062-.624-.094-1.05-.468-1.362-.988-.83-1.372-1.651-2.744-2.482-4.117l9.256-14.855c.686-.905 1.767-1.165 2.743-.635.28.156.499.375.665.635.863 1.434 1.818 2.807 2.68 4.252.084.145.177.29.27.436h-.01Zm27.153 15.104H48.87V0h5.045v25.207Zm24.855 0h-5.396L63.653 8.613v16.594h-5.045V0h5.396l9.721 16.611V0h5.045v25.207Zm24.855 0h-5.396l-9.72-16.594v16.594h-5.046V0h5.397l9.72 16.611V0h5.045v25.207Zm21.973 0h-17.279V0h17.279v5.045h-12.234v5.045h8.279v5.045h-8.279v5.027h12.234v5.045Zm8.578-20.162v10.09h5.045a4.95 4.95 0 0 0 1.951-.387 5.226 5.226 0 0 0 1.6-1.09c.457-.457.814-.99 1.072-1.6a4.88 4.88 0 0 0 .405-1.968c0-.692-.135-1.342-.405-1.951a4.94 4.94 0 0 0-1.072-1.618 4.98 4.98 0 0 0-1.6-1.072 4.765 4.765 0 0 0-1.951-.404h-5.045Zm0 20.162h-5.045V0h10.09a9.58 9.58 0 0 1 2.672.37 9.431 9.431 0 0 1 2.391 1.019c.75.433 1.429.96 2.039 1.582a9.534 9.534 0 0 1 1.582 2.039c.445.75.785 1.553 1.019 2.408a9.62 9.62 0 0 1 .369 2.672c0 .867-.111 1.71-.334 2.531-.21.82-.521 1.6-.931 2.338a9.635 9.635 0 0 1-1.477 2.039 10.069 10.069 0 0 1-1.968 1.617l2.794 6.592h-5.361l-2.197-5.08-5.643.035v5.045Zm29.778 0h-5.028v-7.893a9.94 9.94 0 0 1-3.076-1.353 10.26 10.26 0 0 1-2.391-2.215 10.495 10.495 0 0 1-1.564-2.865 10.137 10.137 0 0 1-.545-3.322V0h5.045v7.559c0 .691.129 1.347.387 1.968.269.61.633 1.143 1.09 1.6.457.457.99.82 1.599 1.09a5.087 5.087 0 0 0 1.969.386c.691 0 1.342-.128 1.951-.386a5.174 5.174 0 0 0 1.617-1.09c.457-.457.815-.99 1.073-1.6a4.901 4.901 0 0 0 .404-1.968V0h5.027v7.559c0 1.16-.187 2.267-.562 3.322a10.135 10.135 0 0 1-1.547 2.865 10.26 10.26 0 0 1-2.391 2.215 9.72 9.72 0 0 1-3.058 1.353v7.893Z"/></svg><svg viewBox="0 0 22 24" id="play" xmlns="http://www.w3.org/2000/svg"><path d="M19.558 9.19c1.984 1.158 1.984 4.025 0 5.183L4.512 23.15C2.512 24.316 0 22.874 0 20.558V3.004C0 .69 2.512-.754 4.512.414L19.558 9.19Z"/></svg><svg viewBox="0 0 23 19" id="tg" xmlns="http://www.w3.org/2000/svg"><path d="M1.424 8.157s10-4.118 13.53-5.546c1.344-.589 5.882-2.437 5.882-2.437s2.101-.84 1.933 1.176c0 .84-.504 3.614-1.008 6.723-.673 4.37-1.429 9.075-1.429 9.075s-.084 1.345-1.092 1.597c-1.009.252-2.605-.84-2.857-1.008-.253-.168-4.37-2.773-5.883-4.034-.42-.336-.84-1.008 0-1.849a221.974 221.974 0 0 0 6.05-5.798c.673-.672 1.43-2.353-1.512-.336-4.118 2.857-8.151 5.462-8.151 5.462s-.925.588-2.69 0c-1.764-.504-3.78-1.176-3.78-1.176s-1.43-.84 1.007-1.765v-.084Z"/></svg><svg viewBox="0 0 24 17" id="youtube" xmlns="http://www.w3.org/2000/svg"><path d="M20.312 0H3.08A3.08 3.08 0 0 0 0 3.08v10.78a3.08 3.08 0 0 0 3.08 3.08h17.232a3.08 3.08 0 0 0 3.08-3.08V3.08A3.08 3.08 0 0 0 20.312 0Zm-5.848 9.22-4.791 2.396a.831.831 0 0 1-1.208-.745V6.08a.838.838 0 0 1 1.208-.745l4.791 2.395c.614.302.614 1.178 0 1.49Z"/></svg></svg>